<svg width="12" height="12" viewBox="0 0 12 12" fill="none" xmlns="http://www.w3.org/2000/svg">
<path d="M6.786 6.00148L11.2247 1.58709C11.4375 1.37644 11.4375 1.03543 11.2247 0.825316C11.0124 0.614664 10.6676 0.614664 10.4554 0.825316L6.02051 5.23594L1.54464 0.759577C1.33238 0.546775 0.987604 0.546775 0.77534 0.759577C0.563076 0.972916 0.563076 1.31823 0.77534 1.53103L5.24794 6.00416L0.759174 10.4681C0.54691 10.6788 0.54691 11.0198 0.759174 11.2299C0.971438 11.4405 1.31621 11.4405 1.52848 11.2299L6.01343 6.7697L10.4715 11.2283C10.6837 11.4411 11.0285 11.4411 11.2408 11.2283C11.453 11.0149 11.453 10.6696 11.2408 10.4568L6.786 6.00148Z" fill="currentColor"/>
</svg>
