<svg width="17" height="17" viewBox="0 0 17 17" fill="none" xmlns="http://www.w3.org/2000/svg">
<path d="M11.1406 1.19653H5.71652C3.22052 1.19653 1.19643 3.22063 1.19643 5.71662V11.1407C1.19643 13.6367 3.22052 15.6608 5.71652 15.6608H11.1406C13.6366 15.6608 15.6607 13.6367 15.6607 11.1407V5.71662C15.6607 3.22063 13.6366 1.19653 11.1406 1.19653ZM14.3047 11.1407C14.3047 12.8855 12.8854 14.3048 11.1406 14.3048H5.71652C3.97176 14.3048 2.55245 12.8855 2.55245 11.1407V5.71662C2.55245 3.97187 3.97176 2.55256 5.71652 2.55256H11.1406C12.8854 2.55256 14.3047 3.97187 14.3047 5.71662V11.1407Z" fill="currentColor"/>
<path d="M8.42857 4.8125C6.4316 4.8125 4.8125 6.4316 4.8125 8.42857C4.8125 10.4255 6.4316 12.0446 8.42857 12.0446C10.4255 12.0446 12.0446 10.4255 12.0446 8.42857C12.0446 6.4316 10.4255 4.8125 8.42857 4.8125ZM8.42857 10.6886C7.18283 10.6886 6.16853 9.67431 6.16853 8.42857C6.16853 7.18193 7.18283 6.16853 8.42857 6.16853C9.67431 6.16853 10.6886 7.18193 10.6886 8.42857C10.6886 9.67431 9.67431 10.6886 8.42857 10.6886Z" fill="currentColor"/>
<path d="M12.3159 5.02325C12.582 5.02325 12.7977 4.80752 12.7977 4.54141C12.7977 4.2753 12.582 4.05957 12.3159 4.05957C12.0498 4.05957 11.834 4.2753 11.834 4.54141C11.834 4.80752 12.0498 5.02325 12.3159 5.02325Z" fill="currentColor"/>
</svg>
