<svg width="20" height="18" viewBox="0 0 20 18" fill="none" xmlns="http://www.w3.org/2000/svg">
<path d="M19 16H1C0.448006 16 0 16.448 0 17C0 17.552 0.448006 18 1 18H19C19.552 18 20 17.552 20 16.9999C20 16.448 19.552 16 19 16ZM1 1.99997H19C19.552 1.99997 20 1.552 20 0.999969C20 0.447943 19.552 -3.05176e-05 19 -3.05176e-05H1C0.448006 2.16216e-06 0 0.447976 0 1C0 1.552 0.448006 1.99997 1 1.99997ZM19 7.99997H1C0.448006 7.99997 0 8.44798 0 9C0 9.55203 0.448006 10 1 10H19C19.552 10 20 9.552 20 9C20 8.44801 19.552 7.99997 19 7.99997Z" fill="currentColor"/>
</svg>
