<svg width="20" height="20" viewBox="0 0 20 20" fill="none" xmlns="http://www.w3.org/2000/svg">
<path d="M19.8001 8.02606C19.2727 5.40747 17.7581 3.15135 15.5344 1.67333C13.4099 0.261169 10.8563 -0.282883 8.3394 0.139492C8.32273 0.141992 8.30608 0.144492 8.2894 0.146992C2.85732 1.09096 -0.793502 6.27812 0.150424 11.7085C0.225423 12.1434 0.331202 12.5775 0.46202 12.994C1.01271 14.7828 0.876934 16.6999 0.0804257 18.3928C-0.0587121 18.6861 -0.0128927 19.0343 0.196244 19.2835C0.40538 19.5325 0.736936 19.635 1.05353 19.5509L4.78768 18.5311C6.36897 19.4992 8.15441 20 9.97734 20C10.6397 20 11.307 19.9341 11.9719 19.8C14.5905 19.2726 16.8466 17.758 18.3246 15.5343C19.8026 13.3106 20.3267 10.6446 19.8001 8.02606ZM16.9366 14.6112C15.7044 16.465 13.824 17.728 11.6428 18.1671C9.46333 18.6036 7.23966 18.1687 5.38591 16.9365C5.24759 16.8449 5.08681 16.7974 4.92435 16.7974C4.85104 16.7974 4.7769 16.8074 4.70526 16.8265L2.16167 17.5206C2.59159 15.8818 2.55991 14.1463 2.05336 12.4975C1.94254 12.1459 1.85422 11.786 1.79176 11.4236C1.00775 6.90963 4.03121 2.59894 8.53604 1.79579C8.55104 1.79411 8.56604 1.79161 8.58104 1.78911C10.6897 1.42501 12.8309 1.87743 14.6122 3.06049C16.4659 4.29269 17.7281 6.17312 18.1672 8.35429C18.6062 10.5363 18.1688 12.7583 16.9366 14.6112Z" fill="currentColor"/>
<path d="M13.3306 7.49957H6.66546C6.20472 7.49957 5.83231 7.87198 5.83231 8.33271C5.83231 8.79345 6.20472 9.16586 6.66546 9.16586H13.3306C13.7905 9.16586 14.1638 8.79345 14.1638 8.33271C14.1638 7.87198 13.7913 7.49957 13.3306 7.49957Z" fill="currentColor"/>
<path d="M13.3306 10.8322H6.66546C6.20472 10.8322 5.83231 11.2046 5.83231 11.6654C5.83231 12.1261 6.20472 12.4985 6.66546 12.4985H13.3306C13.7905 12.4985 14.1638 12.1261 14.1638 11.6654C14.1638 11.2046 13.7913 10.8322 13.3306 10.8322Z" fill="currentColor"/>
</svg>
