<svg width="20" height="20" viewBox="0 0 20 20" fill="none" xmlns="http://www.w3.org/2000/svg">
<g clip-path="url(#clip0)">
<path d="M19.2884 14.0709C19.0208 13.7838 18.7434 13.5113 18.4709 13.2486C18.3347 13.1172 18.1984 12.9809 18.0621 12.8447L16.8748 11.6573C16.3687 11.1512 15.775 10.8836 15.1668 10.8836C14.5536 10.8836 13.9648 11.1512 13.4587 11.6573C13.3371 11.779 13.2106 11.9006 13.0889 12.0223C12.8067 12.2997 12.5147 12.5868 12.2325 12.8885C11.7313 12.6452 11.2203 12.3094 10.6266 11.8422C9.85291 11.2096 9.19111 10.577 8.60231 9.90549C8.286 9.54053 7.73126 9.5016 7.3663 9.82277C7.00134 10.1391 6.96241 10.6938 7.28357 11.0588C7.93564 11.8082 8.67043 12.5138 9.52688 13.2096C9.53174 13.2096 9.53174 13.2145 9.53661 13.2145C10.3979 13.8958 11.123 14.3434 11.8967 14.6597C11.9162 14.6695 11.9356 14.6743 11.9551 14.6792C12.14 14.7425 12.6948 14.9274 13.2398 14.3872C13.2495 14.3775 13.2641 14.3629 13.2738 14.3532C13.6047 13.9785 13.9551 13.6379 14.3249 13.2729C14.4514 13.1512 14.578 13.0247 14.7045 12.8982C14.8213 12.7814 15.0013 12.6354 15.1765 12.6354C15.3517 12.6354 15.5269 12.7765 15.6485 12.8982L16.8359 14.0855C16.977 14.2267 17.123 14.3678 17.2592 14.504C17.5317 14.7668 17.7848 15.0198 18.0281 15.2778C18.0329 15.2875 18.0427 15.2924 18.0475 15.2972C18.2325 15.4821 18.432 15.7741 18.0378 16.1926L16.5536 17.6768C16.2373 17.9931 15.887 18.1585 15.4441 18.1975C14.6899 18.2607 13.887 18.1147 12.8407 17.7254C11.0987 17.0831 9.47335 16.105 7.71666 14.6452C5.59501 12.869 3.92591 10.7376 2.7483 8.30938C2.32981 7.42861 1.83832 6.26072 1.7556 5.01985C1.7118 4.32885 1.89672 3.8325 2.34441 3.41401C2.67044 3.1415 2.95754 2.84467 3.23005 2.56243C3.40523 2.37751 3.57068 2.2072 3.74586 2.04661L3.75073 2.04175C4.09623 1.71084 4.38333 1.70598 4.7045 2.02715L7.10352 4.42617C7.10839 4.43104 7.11326 4.4359 7.11812 4.44077C7.22031 4.53809 7.34197 4.68895 7.34683 4.8544C7.34683 5.02958 7.21545 5.1999 7.10839 5.31182L5.61934 6.80087C5.27871 7.1415 5.27871 7.69625 5.61934 8.04174C5.95997 8.38238 6.51472 8.38238 6.86022 8.04174L8.34927 6.55269C8.85048 6.05148 9.10839 5.46267 9.10352 4.8398C9.09866 4.23153 8.83588 3.65732 8.3444 3.1853L5.95024 0.791137C4.94781 -0.211296 3.58528 -0.216162 2.54879 0.776538C2.34441 0.966319 2.15949 1.16097 1.97458 1.35075C1.71667 1.61839 1.47336 1.87143 1.21059 2.09041C1.20086 2.10014 1.19112 2.10987 1.17653 2.1196C0.324945 2.89333 -0.0643487 3.90549 0.00864386 5.13177C0.110833 6.66948 0.680176 8.04175 1.16679 9.06364V9.06851C2.45633 11.7254 4.27628 14.0515 6.58771 15.9882C8.50012 17.5746 10.2909 18.65 12.2227 19.3653C12.9332 19.6281 13.9697 19.959 15.1181 19.959C15.269 19.959 15.4247 19.9542 15.5804 19.9396H15.5853C16.4368 19.8666 17.1765 19.5211 17.7848 18.9128L19.2738 17.4237C19.2787 17.4189 19.2836 17.414 19.2884 17.4091C20.2471 16.4116 20.2422 15.0393 19.2884 14.0709Z" fill="currentColor"/>
</g>
<defs>
<clipPath id="clip0">
<rect width="20" height="20" fill="white"/>
</clipPath>
</defs>
</svg>
