<svg width="11" height="11" viewBox="0 0 11 11" fill="none" xmlns="http://www.w3.org/2000/svg">
<path d="M9.96404 4.60714H6.3926V1.0357C6.3926 0.542567 5.99285 0.142822 5.49972 0.142822C5.00659 0.142822 4.60685 0.542567 4.60685 1.0357V4.60714H1.03545C0.542324 4.60714 0.142578 5.00688 0.142578 5.50001C0.142578 5.99314 0.542324 6.39283 1.03545 6.39283H4.6069V9.96427C4.6069 10.4574 5.00665 10.8571 5.49977 10.8571C5.9929 10.8571 6.3926 10.4573 6.3926 9.96427V6.39283H9.96404C10.4572 6.39283 10.8569 5.99309 10.8569 5.49996C10.8569 5.00683 10.4571 4.60714 9.96404 4.60714Z" fill="currentColor"/>
</svg>
