<svg width="20" height="20" viewBox="0 0 20 20" fill="none" xmlns="http://www.w3.org/2000/svg">
<path d="M19.4952 0.504627C19.036 0.0452152 18.3669 -0.115683 17.749 0.0848244L1.18909 5.45953C0.539721 5.67031 0.0884724 6.22277 0.0114414 6.90136C-0.0655895 7.58007 0.250425 8.21975 0.836204 8.57073C0.879329 8.59659 0.924875 8.61819 0.972102 8.6353L5.93075 10.4283L5.9356 15.7755C5.93626 16.4776 6.36005 17.0941 7.01536 17.3461C7.66055 17.5964 8.39676 17.4283 8.8693 16.9039C8.87031 16.9028 8.87141 16.9016 8.87242 16.9004L10.5877 14.981L13.4674 19.1854C13.8185 19.7584 14.4641 20.0653 15.121 19.9883C15.7996 19.9119 16.3523 19.4608 16.5635 18.8112C16.5727 18.7828 16.5803 18.7539 16.5862 18.7246L17.112 16.1265C17.1975 15.7036 16.9241 15.2914 16.5012 15.2059C16.0783 15.1202 15.6661 15.3937 15.5805 15.8166L15.067 18.3541C15.0435 18.4019 15.0029 18.4292 14.946 18.4357C14.88 18.4429 14.8286 18.4178 14.7942 18.3603C14.786 18.3464 14.7773 18.3329 14.7682 18.3196L11.578 13.6619L16.1565 5.175C16.3225 4.86734 16.2639 4.48688 16.0131 4.2434C15.7621 3.99997 15.38 3.95274 15.0776 4.12793L6.62837 9.01901L1.60249 7.20175C1.57116 7.16956 1.55823 7.12796 1.56397 7.07757C1.57155 7.01077 1.60772 6.9664 1.67143 6.94574L18.2314 1.57103C18.2919 1.5515 18.3452 1.56431 18.3901 1.60927C18.4354 1.65458 18.4483 1.70853 18.4284 1.76958C18.4192 1.79802 18.4116 1.82689 18.4057 1.85615L16.3494 12.0172C16.2638 12.4401 16.5373 12.8524 16.9602 12.9379C17.3829 13.0237 17.7953 12.75 17.8809 12.3271L19.9296 2.20353C20.1067 1.599 19.9427 0.952321 19.4952 0.504627ZM13.4701 6.8639L10.0032 13.2903L7.70926 15.8572C7.6918 15.8764 7.65251 15.9171 7.57633 15.8878C7.49825 15.8577 7.49821 15.7991 7.49817 15.7741L7.49325 10.3238L13.4701 6.8639Z" fill="currentColor"/>
</svg>
