<svg width="17" height="14" viewBox="0 0 17 14" fill="none" xmlns="http://www.w3.org/2000/svg">
<path d="M16.1429 2.05557C15.5691 2.30725 14.9578 2.47407 14.3204 2.55507C14.9761 2.16357 15.4765 1.54835 15.7118 0.806819C15.1005 1.17132 14.4255 1.42878 13.7061 1.57246C13.1256 0.954356 12.2983 0.571533 11.3957 0.571533C9.64454 0.571533 8.23477 1.99289 8.23477 3.73535C8.23477 3.98606 8.25597 4.22715 8.30805 4.45663C5.67844 4.32839 3.35162 3.06807 1.78851 1.14818C1.51561 1.62164 1.35555 2.16357 1.35555 2.74696C1.35555 3.84239 1.91965 4.81343 2.76051 5.37559C2.25233 5.36596 1.75379 5.21843 1.33144 4.98605C1.33144 4.99568 1.33144 5.0082 1.33144 5.02073C1.33144 6.55782 2.42783 7.83453 3.86558 8.12863C3.60811 8.19902 3.32751 8.23278 3.03629 8.23278C2.83379 8.23278 2.62937 8.2212 2.43747 8.17878C2.84729 9.43139 4.01024 10.3523 5.39301 10.3822C4.31687 11.224 2.95047 11.7312 1.47126 11.7312C1.21187 11.7312 0.96308 11.7196 0.714294 11.6878C2.1154 12.5913 3.7759 13.1072 5.56658 13.1072C11.387 13.1072 14.5692 8.28582 14.5692 4.10659C14.5692 3.96678 14.5643 3.83178 14.5576 3.69776C15.1853 3.25225 15.7128 2.69586 16.1429 2.05557Z" fill="currentColor"/>
</svg>
