<svg width="17" height="14" viewBox="0 0 17 14" fill="none" xmlns="http://www.w3.org/2000/svg">
<path d="M7.00398 8.96218C6.94446 9.01563 6.90801 9.09012 6.90237 9.16991L6.66773 12.4701C6.66137 12.5594 6.73268 12.6371 6.82109 12.623C7.07424 12.5826 7.2106 12.4473 7.36893 12.2901L9.08088 10.654L12.6283 13.2518C13.2788 13.6144 13.7372 13.4235 13.9127 12.6533L16.2412 1.74247L16.2418 1.74182C16.4482 0.780085 15.8941 0.404004 15.2602 0.639938L1.57342 5.87998C0.639328 6.24259 0.653471 6.7633 1.41463 6.99923L4.77853 8.04554C4.86441 8.07226 4.95763 8.0602 5.03387 8.01249L13.0416 3.00186C13.4242 2.74856 13.7719 2.88871 13.4859 3.142L7.00398 8.96218Z" fill="currentColor"/>
</svg>
