<svg width="23" height="26" viewBox="0 0 23 26" fill="none" xmlns="http://www.w3.org/2000/svg">
<path d="M20.6727 10.1152L5.90709 1.01339C4.83883 0.355726 3.54727 0.328382 2.4521 0.940248C1.35694 1.55202 0.703125 2.66632 0.703125 3.92077V22.0415C0.703125 23.9383 2.23145 25.4897 4.10987 25.4999C4.115 25.4999 4.12012 25.5 4.12515 25.5C4.71217 25.4999 5.32389 25.316 5.89523 24.9673C6.35485 24.6869 6.50011 24.087 6.21969 23.6274C5.93927 23.1678 5.33927 23.0225 4.87979 23.303C4.61256 23.466 4.35157 23.5503 4.12037 23.5502C3.41163 23.5464 2.65279 22.9392 2.65279 22.0415V3.92082C2.65279 3.38268 2.93326 2.9048 3.40298 2.64235C3.87276 2.3799 4.42672 2.39162 4.88438 2.6734L19.6501 11.7752C20.0939 12.0485 20.3478 12.5041 20.3468 13.0253C20.3457 13.5464 20.0899 14.001 19.6436 14.2733L8.96799 20.8098C8.5088 21.091 8.36447 21.6911 8.64562 22.1503C8.92673 22.6095 9.52687 22.7538 9.98605 22.4726L20.6604 15.9369C21.6825 15.3134 22.2941 14.2265 22.2965 13.0292C22.299 11.832 21.6917 10.7426 20.6727 10.1152Z" fill="currentColor"/>
</svg>
