<svg width="20" height="20" viewBox="0 0 20 20" fill="none" xmlns="http://www.w3.org/2000/svg">
<path d="M17.0282 2.90436C15.1494 1.03256 12.65 0.00106812 9.98992 0C7.3358 0 4.83244 1.03058 2.94128 2.90192C1.04675 4.77644 0.00244141 7.2676 0 9.90736V9.91228C0.000305176 11.51 0.420076 13.1218 1.21689 14.593L0.0273132 20L5.49652 18.756C6.88172 19.454 8.42728 19.8221 9.98612 19.8227H9.99008C12.6437 19.8227 15.1471 18.792 17.0386 16.9205C18.9348 15.0444 19.9796 12.5564 19.9808 9.915C19.9815 7.29216 18.9331 4.8024 17.0282 2.90436ZM9.98992 18.2617H9.9864C8.58672 18.2611 7.19984 17.9097 5.97596 17.2452L5.71732 17.1048L2.08054 17.932L2.87048 14.3419L2.7182 14.0793C1.96106 12.7736 1.56098 11.3322 1.56098 9.9106C1.56387 5.309 5.34468 1.56098 9.98964 1.56098C12.2336 1.56189 14.342 2.43179 15.9265 4.01016C17.535 5.61296 18.4204 7.7098 18.4196 9.91456C18.4178 14.5172 14.6362 18.2617 9.98992 18.2617Z" fill="currentColor"/>
<path d="M7.27156 5.54152H6.83364C6.6812 5.54152 6.43372 5.5986 6.22436 5.8264C6.01488 6.0544 5.42448 6.60536 5.42448 7.726C5.42448 8.8466 6.24344 9.92936 6.35756 10.0815C6.47188 10.2334 7.9384 12.6065 10.2611 13.5194C12.1915 14.2781 12.5844 14.1272 13.0032 14.0892C13.4222 14.0514 14.3553 13.5384 14.5458 13.0066C14.7362 12.4748 14.7362 12.0189 14.6791 11.9237C14.6219 11.8288 14.4694 11.7718 14.241 11.658C14.0124 11.544 12.8924 10.9837 12.683 10.9076C12.4734 10.8318 12.3212 10.7938 12.1687 11.0219C12.0163 11.2496 11.5675 11.7763 11.4342 11.9282C11.301 12.0804 11.1676 12.0994 10.939 11.9855C10.7104 11.8712 9.982 11.6264 9.10904 10.8507C8.42956 10.2469 7.95808 9.47692 7.82472 9.24896C7.69148 9.02116 7.81052 8.89784 7.92512 8.78416C8.0278 8.68224 8.16652 8.5428 8.2808 8.40988C8.39492 8.27684 8.42744 8.18192 8.50372 8.02992C8.57988 7.87796 8.54172 7.74492 8.48464 7.63108C8.42744 7.51708 7.98888 6.39084 7.78564 5.9404H7.7858C7.6146 5.56108 7.4344 5.54824 7.27156 5.54152Z" fill="currentColor"/>
</svg>
