<svg width="15" height="11" viewBox="0 0 15 11" fill="none" xmlns="http://www.w3.org/2000/svg">
<path d="M14.2857 4.0896C14.2857 3.78929 14.2357 3.43893 14.2357 3.03851C14.1856 2.6381 14.1356 2.23768 14.0855 1.88731C13.9854 1.48689 13.8352 1.18658 13.5349 0.936324C13.2847 0.686063 12.9343 0.535902 12.5839 0.48585C11.4327 0.335694 9.73098 0.285645 7.42858 0.285645C5.12618 0.285645 3.37434 0.335694 2.2732 0.48585C1.92283 0.535902 1.57247 0.686063 1.32221 0.936324C1.07195 1.18658 0.871736 1.48689 0.771632 1.88731C0.671528 2.23768 0.621482 2.58804 0.621482 3.03851C0.571429 3.43893 0.571426 3.78929 0.571426 4.0896C0.571426 4.38992 0.571426 4.74028 0.571426 5.2408C0.571426 5.74133 0.571426 6.14174 0.571426 6.392C0.571426 6.69232 0.621482 7.04269 0.621482 7.4431C0.671534 7.84352 0.72158 8.24393 0.771632 8.5943C0.871736 8.99471 1.0219 9.29503 1.32221 9.54529C1.57247 9.79555 1.92283 9.94571 2.2732 9.99576C3.4244 10.1459 5.12618 10.196 7.42858 10.196C9.73098 10.196 11.4828 10.1459 12.5839 9.99576C12.9343 9.94571 13.2847 9.79555 13.5349 9.54529C13.7852 9.29503 13.9854 8.99471 14.0855 8.5943C14.1856 8.24393 14.2357 7.89357 14.2357 7.4431C14.2857 7.04269 14.2857 6.69232 14.2857 6.392C14.2857 6.09169 14.2857 5.74133 14.2857 5.2408C14.2857 4.74028 14.2857 4.33986 14.2857 4.0896ZM10.0813 5.64122L6.12722 8.09378C6.07717 8.14383 5.97706 8.19389 5.87696 8.19389C5.77685 8.19389 5.7268 8.19388 5.6267 8.14383C5.47654 8.04373 5.37644 7.89357 5.37644 7.69336V2.7382C5.37644 2.53799 5.47654 2.38783 5.6267 2.28773C5.77685 2.18763 5.97706 2.18763 6.12722 2.28773L10.0813 4.74028C10.2315 4.84039 10.3316 4.99054 10.3316 5.1407C10.3316 5.29086 10.2315 5.54112 10.0813 5.64122Z" fill="currentColor"/>
</svg>
