<svg width="40" height="40" viewBox="0 0 40 40" fill="none" xmlns="http://www.w3.org/2000/svg">
<path d="M34.1493 34.1493C41.9502 26.3484 41.9502 13.6516 34.1493 5.85067C26.3484 -1.95022 13.6516 -1.95022 5.85067 5.85067C-1.95022 13.6516 -1.95022 26.3484 5.85067 34.1493C13.6516 41.9502 26.3484 41.9502 34.1493 34.1493ZM7.26234 7.26234C14.288 0.236638 25.712 0.236638 32.7377 7.26234C39.7634 14.288 39.7634 25.712 32.7377 32.7377C25.712 39.7634 14.288 39.7634 7.26234 32.7377C0.236638 25.712 0.244798 14.288 7.26234 7.26234Z" fill="currentColor"/>
<path d="M20 27.4907C20.2775 27.4907 20.5223 27.3765 20.71 27.197C20.8895 27.0174 21.0037 26.7645 21.0037 26.4871V20.9954H26.4954C26.7728 20.9954 27.0176 20.8812 27.2053 20.7017C27.3848 20.5221 27.499 20.2692 27.499 19.9918C27.499 19.4369 27.0502 18.9881 26.5035 18.9962H21.0119V13.5046C21.0119 12.9497 20.5631 12.5009 20.0164 12.5091C19.4615 12.5091 19.0127 12.9579 19.0209 13.5046V18.9962H13.5292C12.9743 18.9962 12.5255 19.445 12.5337 19.9918C12.5337 20.5466 12.9825 20.9954 13.5292 20.9873H19.0209V26.4789C18.9964 27.0419 19.4452 27.4907 20 27.4907Z" fill="currentColor"/>
</svg>
