<svg width="1105" height="1139" viewBox="0 0 1105 1139" fill="none" xmlns="http://www.w3.org/2000/svg">
<path d="M480.795 85.6167L486.806 52.866C212.635 85.3481 0 318.593 0 601.501C0 850.838 165.164 1061.6 392.053 1130.34C267.471 1029.78 225.028 929.235 216.636 862.219C137.739 779.164 89.3264 666.872 89.3264 543.274C89.3264 311.858 259.041 120.081 480.795 85.6167Z" fill="black"/>
<path d="M891.105 859.309C867.183 930.587 832.437 1022.96 808.569 1050.12C782.926 1079.3 722.572 1116.36 682.175 1138.7C924.748 1080.35 1105 861.978 1105 601.501C1105 296.364 857.637 49.001 552.5 49.001C542.326 49.001 532.215 49.276 522.176 49.819L523.815 80.9736C533.303 80.3939 542.867 80.0998 552.5 80.0998C808.304 80.0998 1015.67 287.47 1015.67 543.273C1015.67 665.434 968.381 776.549 891.105 859.309Z" fill="#DE041D"/>
<path d="M467.806 926.385C362.268 884.038 400.094 712.663 433.729 641.202C304.041 739.66 317.274 896.168 340.102 962.115C362.93 1028.06 432.737 1100.74 525.041 1108.35C617.345 1115.96 712.819 1090.16 767.545 962.115C836.69 800.336 673.918 649.804 626.939 587.937C579.96 526.07 552.17 466.85 559.117 375.87C470.783 490.34 516.77 582.644 564.08 657.413C611.39 732.183 626.49 778.699 634.548 820.517C646.789 884.038 584.253 973.11 467.806 926.385Z" fill="black"/>
<path d="M349.035 416.232C160.787 623.006 156.818 799.232 175.014 860.548C198.475 920.16 308.341 1080.56 393.036 1131.17C303.379 1051.11 282.729 986.117 270.295 936.971C228.278 770.89 310.702 613.036 464.828 435.42C625.615 250.129 556.801 96.9726 511.807 0.367798C522.394 63.8888 511.807 251.143 349.035 416.232Z" fill="black"/>
<path d="M778.132 599.516C866.135 740.454 868.451 844.668 858.195 902.895C847.939 961.123 819.156 1061.7 681.858 1138.12C885.324 1076.59 933.89 876.502 931.641 818.862C928.002 725.566 866.466 599.516 769.861 496.957C673.256 394.397 651.752 325.913 634.879 270.001C644.473 387.78 659.06 408.822 778.132 599.516Z" fill="#DE041D"/>
</svg>
