<svg width="54" height="56" viewBox="0 0 54 56" fill="none" xmlns="http://www.w3.org/2000/svg">
<path d="M23.2302 4.61892L23.5207 3.03652C10.2738 4.60594 0 15.8755 0 29.5446C0 41.5916 7.98012 51.7748 18.9426 55.0963C12.9232 50.2375 10.8725 45.3795 10.4671 42.1415C6.65506 38.1286 4.31592 32.7031 4.31592 26.7312C4.31592 15.5501 12.5159 6.28409 23.2302 4.61892Z" fill="black"/>
<path d="M43.055 42.0009C41.8991 45.4448 40.2203 49.9078 39.0671 51.2201C37.8282 52.63 34.9121 54.4205 32.9602 55.5C44.6804 52.681 53.3896 42.1299 53.3896 29.5446C53.3896 14.8014 41.4379 2.84978 26.6948 2.84978C26.2032 2.84978 25.7147 2.86307 25.2296 2.88931L25.3089 4.39458C25.7673 4.36657 26.2294 4.35236 26.6948 4.35236C39.0543 4.35236 49.0737 14.3717 49.0737 26.7312C49.0737 32.6336 46.7887 38.0023 43.055 42.0009Z" fill="#DE041D"/>
<path d="M22.6026 45.2417C17.5035 43.1957 19.3311 34.9155 20.9562 31.4628C14.6901 36.2199 15.3295 43.7818 16.4325 46.9681C17.5354 50.1544 20.9082 53.6658 25.368 54.0334C29.8278 54.4011 34.4408 53.1547 37.085 46.9681C40.4258 39.1515 32.5612 31.8784 30.2914 28.8892C28.0215 25.9 26.6788 23.0387 27.0145 18.6429C22.7465 24.1736 24.9684 28.6334 27.2543 32.246C29.5401 35.8586 30.2697 38.1061 30.659 40.1266C31.2505 43.1957 28.2289 47.4993 22.6026 45.2417Z" fill="black"/>
<path d="M16.8641 20.593C7.76863 30.5836 7.57684 39.0982 8.45601 42.0607C9.58958 44.941 14.8979 52.6907 18.99 55.1364C14.6581 51.2681 13.6604 48.1278 13.0597 45.7533C11.0296 37.7288 15.0119 30.1019 22.4588 21.5201C30.2274 12.5675 26.9026 5.16759 24.7286 0.5C25.2401 3.5691 24.7286 12.6166 16.8641 20.593Z" fill="black"/>
<path d="M37.5965 29.4487C41.8485 36.2582 41.9604 41.2935 41.4648 44.1068C40.9693 46.9202 39.5786 51.7796 32.9449 55.4721C42.7756 52.4989 45.1221 42.8316 45.0135 40.0467C44.8376 35.5389 41.8645 29.4487 37.1969 24.4933C32.5293 19.538 31.4902 16.2291 30.675 13.5277C31.1386 19.2183 31.8434 20.235 37.5965 29.4487Z" fill="#DE041D"/>
</svg>
