<svg width="191" height="32" viewBox="0 0 191 32" fill="none" xmlns="http://www.w3.org/2000/svg">
<rect x="0.119232" y="0.50292" width="5.19964" height="20.0137" fill="#DE041D"/>
<rect x="4.33783" y="7.66479" width="4.85627" height="4.46384" fill="#DE041D"/>
<path fill-rule="evenodd" clip-rule="evenodd" d="M11.6467 0.503031C8.93759 0.748297 6.88856 2.20869 6.83951 5.40835C6.79046 8.60801 6.7414 13.3928 6.83951 16.1019C6.93762 18.8111 8.93759 20.2715 11.6467 20.5167H13.9032C16.6123 20.2715 18.7104 18.8111 18.7104 15.6114L18.8085 5.40835C18.8085 2.20868 16.6123 0.748297 13.9032 0.503031H11.6467ZM12.7751 3.49525C12.3416 3.49525 11.9902 3.84664 11.9902 4.2801V16.7887C11.9902 17.2221 12.3416 17.5735 12.7751 17.5735C13.2085 17.5735 13.5599 17.2221 13.5599 16.7887V4.2801C13.5599 3.84664 13.2085 3.49525 12.7751 3.49525Z" fill="#DE041D"/>
<rect x="20.7216" y="0.503042" width="5.19964" height="20.0137" fill="#DE041D"/>
<rect x="24.3025" y="0.503029" width="5.4449" height="3.97331" fill="#DE041D"/>
<path d="M31.1699 0.503042H36.3696V20.5167H31.1699V0.503042Z" fill="black"/>
<path d="M37.8902 0.503042H43.0898V20.5167H37.8902V0.503042Z" fill="black"/>
<path d="M35.9281 7.66481H38.4788V12.1286H35.9281V7.66481Z" fill="black"/>
<path d="M45.2481 20.5167V0.503042H53.906V4.50088H50.4478V8.32702H53.6608V12.1286H50.4478V16.5434H54.2739V20.5167H45.2481Z" fill="black"/>
<rect x="62.1225" y="0.503029" width="5.19964" height="20.0137" fill="black"/>
<path d="M60.5282 3.93675H62.2451C62.4249 4.95869 62.6767 7.00257 62.2451 7.00257C61.7055 7.00257 61.264 7.00257 60.8471 7.46858C60.4301 7.93458 60.332 8.57227 60.3075 9.11186C60.2829 9.65144 55.1569 10.4265 55.1569 9.11186C55.1569 7.79723 55.2177 7.20898 55.8191 6.21772C56.2583 5.4939 56.4176 5.20232 57.3398 4.67255C58.262 4.14277 59.8496 3.96128 60.5282 3.93675Z" fill="black"/>
<path d="M60.5282 17.1933H62.2451C62.4249 16.1714 62.6767 14.1275 62.2451 14.1275C61.7055 14.1275 61.264 14.1275 60.8471 13.6615C60.4301 13.1955 60.332 12.5578 60.3075 12.0182C60.2829 11.4786 55.1569 10.7036 55.1569 12.0182C55.1569 13.3328 55.2177 13.9211 55.8191 14.9123C56.2583 15.6362 56.4176 15.9277 57.3398 16.4575C58.262 16.9873 59.8496 17.1688 60.5282 17.1933Z" fill="black"/>
<path d="M55.3531 8.40059H60.3075V12.6192H55.3531V8.40059Z" fill="black"/>
<path d="M55.1569 9.03828H56.4323V12.0305H55.1569V9.03828Z" fill="black"/>
<path d="M69.0811 3.93675H67.217C67.0372 4.95869 66.9325 7.00257 67.3642 7.00257C67.9038 7.00257 68.3453 7.00257 68.7622 7.46858C69.1792 7.93458 69.2773 8.57227 69.3018 9.11186C69.3263 9.65144 74.4524 10.4265 74.4524 9.11186C74.4524 7.79723 74.3916 7.20898 73.7902 6.21772C73.351 5.4939 73.1917 5.20232 72.2695 4.67255C71.3473 4.14277 69.7596 3.96128 69.0811 3.93675Z" fill="black"/>
<path d="M69.0811 17.1933H67.217C67.0372 16.1714 66.9325 14.1275 67.3642 14.1275C67.9038 14.1275 68.3453 14.1275 68.7622 13.6615C69.1792 13.1955 69.2773 12.5578 69.3018 12.0182C69.3263 11.4786 74.4524 10.7036 74.4524 12.0182C74.4524 13.3328 74.3916 13.9211 73.7902 14.9123C73.351 15.6362 73.1917 15.9277 72.2695 16.4575C71.3473 16.9873 69.7596 17.1688 69.0811 17.1933Z" fill="black"/>
<path d="M74.2562 8.40059H69.3018V12.6192H74.2562V8.40059Z" fill="black"/>
<path d="M74.4524 9.03828H73.177V12.0305H74.4524V9.03828Z" fill="black"/>
<path d="M86.4038 4.45182V0.503042H75.0725V4.45182H78.1383V20.5167H83.3625V4.45182H86.4038Z" fill="black"/>
<path d="M87.6301 20.5167V0.503042H96.288V4.50088H92.8297V8.32702H96.0427V12.1286H92.8297V16.5434H96.6559V20.5167H87.6301Z" fill="black"/>
<path d="M98.1275 0.503042V20.5167H103.376V4.50088H104.897V20.5167H110.072V0.503042H98.1275Z" fill="#DE041D"/>
<rect x="112.206" y="0.50292" width="5.15058" height="20.0137" fill="#DE041D"/>
<path d="M121.649 1.23884C120.766 0.591342 118.109 0.478519 116.89 0.503046L116.939 3.9613H118.043C118.828 3.9613 119.024 4.64804 119.024 4.99141V7.9346C119.024 8.83718 118.321 9.04647 117.97 9.0383H116.596C116.645 10.1829 116.861 12.472 117.332 12.472C117.921 12.472 120.692 12.5947 122.066 11.7117C123.164 11.0053 123.39 9.3735 123.365 8.64587V4.57446C123.365 2.66139 122.752 2.04822 121.649 1.23884Z" fill="#DE041D"/>
<path d="M155.324 20.4432V17.9414H156.427C157.075 17.9414 157.122 17.3038 157.065 16.9849L154.048 0.503042H158.561L160.229 12.889L161.038 0.503042H165.502L163.859 15.9057C163.671 16.9359 163.635 18.8166 162.289 19.7564C161.355 20.4083 160.057 20.5004 159.444 20.4432H155.324Z" fill="#DE041D"/>
<path fill-rule="evenodd" clip-rule="evenodd" d="M129.62 0.503042C126.91 0.748308 124.861 2.2087 124.812 5.40836C124.763 8.60802 124.714 13.3928 124.812 16.102C124.911 18.8111 126.91 20.2715 129.62 20.5167H131.876C134.585 20.2715 136.683 18.8111 136.683 15.6114L136.781 5.40836C136.781 2.2087 134.585 0.748308 131.876 0.503042H129.62ZM130.748 3.49526C130.314 3.49526 129.963 3.84665 129.963 4.28012V16.7887C129.963 17.2221 130.314 17.5735 130.748 17.5735C131.181 17.5735 131.533 17.2221 131.533 16.7887V4.28012C131.533 3.84665 131.181 3.49526 130.748 3.49526Z" fill="#DE041D"/>
<path fill-rule="evenodd" clip-rule="evenodd" d="M138.032 16.4453V20.5167L153.607 20.5413V16.4453H152.626V0.527571H141C140.989 0.907311 141.004 1.31024 140.994 1.68777C140.868 6.4308 140.745 11.0348 139.087 16.3963H138.032V16.4453ZM147.352 16.3963H144.507C145.366 13.1342 145.783 7.14157 145.807 4.50088H147.352V16.3963Z" fill="#DE041D"/>
<path d="M190.642 4.45182V0.503042H179.311V4.45182H182.376V20.5167H187.601V4.45182H190.642Z" fill="#DE041D"/>
<rect x="166.606" y="0.503042" width="5.19964" height="20.0137" fill="#DE041D"/>
<path d="M172.884 8.62133C172.498 9.00556 171.952 8.99741 171.609 9.01376V10.9023L174.307 10.5835C174.757 10.5671 176.408 10.3538 177.275 9.65145C178.197 8.90451 178.419 7.73837 178.403 7.07616V2.53874C178.403 1.36146 178.861 0.772821 179.09 0.503029H174.282C173.694 0.895454 173.449 2.24442 173.449 2.85758C173.449 3.47075 173.35 6.62487 173.35 7.07616C173.35 7.64027 173.315 8.19387 172.884 8.62133Z" fill="#DE041D"/>
<path d="M172.884 12.3984C172.498 12.0142 171.952 12.0224 171.609 12.006V10.1175L174.307 10.4363C174.757 10.4527 176.408 10.666 177.275 11.3683C178.197 12.1153 178.419 13.2814 178.403 13.9436V18.481C178.403 19.6583 178.861 20.2469 179.09 20.5167H174.282C173.694 20.1243 173.449 18.7753 173.449 18.1622C173.449 17.549 173.35 14.3949 173.35 13.9436C173.35 13.3795 173.315 12.8259 172.884 12.3984Z" fill="#DE041D"/>
<path d="M0.119232 24.6863H7.72247V26.1088H0.119232V24.6863Z" fill="black"/>
<path d="M3.11148 25.9126H4.77928V31.7499H3.11148V25.9126Z" fill="black"/>
<path fill-rule="evenodd" clip-rule="evenodd" d="M13.6089 24.6863C11.6583 24.6863 10.0771 26.2675 10.0771 28.2181C10.0771 30.1687 11.6583 31.7499 13.6089 31.7499H14.7862C16.7367 31.7499 18.318 30.1687 18.318 28.2181C18.318 26.2675 16.7367 24.6863 14.7862 24.6863H13.6089ZM13.9277 26.0108C12.7221 26.0108 11.7448 26.9881 11.7448 28.1936C11.7448 29.3992 12.7221 30.3765 13.9277 30.3765H14.4673C15.6729 30.3765 16.6502 29.3992 16.6502 28.1936C16.6502 26.9881 15.6729 26.0108 14.4673 26.0108H13.9277Z" fill="black"/>
<path d="M20.9178 25.9127H22.5856V31.75H20.9178V25.9127Z" fill="black"/>
<path d="M26.9513 25.9127H28.6191V31.75H26.9513V25.9127Z" fill="black"/>
<rect x="20.9178" y="24.6863" width="7.70135" height="1.42254" fill="black"/>
<path d="M37.6449 25.9127H39.3127V31.75H37.6449V25.9127Z" fill="black"/>
<rect x="32.0038" y="24.6863" width="7.30892" height="1.42254" fill="black"/>
<path d="M33.6471 29.5181V26.0108H32.0038V29.2238C32.0038 30.2441 31.4152 30.3765 30.9492 30.3765V31.75H31.7585C33.3086 31.75 33.6634 30.262 33.6471 29.5181Z" fill="black"/>
<path d="M42.1088 31.7499V24.6863H43.7766V30.3274H44.0218L48.314 24.6863H51.1346V31.7499H49.4667V26.1088H49.2215L44.9784 31.7499H42.1088Z" fill="black"/>
<path fill-rule="evenodd" clip-rule="evenodd" d="M54.0287 24.6863V31.7499H59.5717C60.3075 31.7499 61.8036 31.6273 61.8036 29.6897C61.8036 28.5124 61.264 28.2181 60.6754 28.0219L59.8169 27.7766H55.1569V24.6863H54.0287ZM59.3018 28.8068H55.6964V30.4255H59.3018C59.7488 30.4255 60.1112 30.0632 60.1112 29.6162C60.1112 29.1692 59.7488 28.8068 59.3018 28.8068Z" fill="black"/>
<path fill-rule="evenodd" clip-rule="evenodd" d="M54.0286 31.75V24.6863H59.3264C60.1848 24.6863 61.5338 24.809 61.5338 26.722C61.5338 27.9484 60.4055 28.1691 59.6207 28.1691L59.8169 28.6596H55.1568V31.75H54.0286ZM59.0029 27.5805H55.6964V26.0108H59.0611C59.4785 26.0108 59.8168 26.3492 59.8168 26.7666C59.8168 27.2161 59.4524 27.5805 59.0029 27.5805Z" fill="black"/>
<path d="M64.5751 24.6863H66.2429V31.7499H64.5751V24.6863Z" fill="black"/>
<path d="M70.6087 24.6863H72.2765V31.75H70.6087V24.6863Z" fill="black"/>
<rect x="64.5751" y="27.3843" width="7.70135" height="1.42254" fill="black"/>
<path fill-rule="evenodd" clip-rule="evenodd" d="M74.4103 31.7499L78.1628 24.6863H80.7136L84.4417 31.7499H82.4059L81.4985 29.984H77.3535L76.4705 31.7499H74.4103ZM79.4382 25.9371L78.0402 28.6105H80.8362L79.4382 25.9371Z" fill="black"/>
<path fill-rule="evenodd" clip-rule="evenodd" d="M94.5221 31.7499V24.6863H88.9791C88.2433 24.6863 86.6981 24.9806 86.6981 26.9182C86.6981 28.0955 87.1151 28.9539 88.2433 29.2728L86.1831 31.7499H88.3659L90.0583 29.4935H92.8788V31.7499H94.5221ZM89.4124 26.0108C88.8345 26.0108 88.366 26.4793 88.366 27.0572C88.366 27.6713 88.8638 28.1691 89.4778 28.1691H92.8789V26.0108H89.4124Z" fill="black"/>
<path d="M102.665 31.7499V24.6863H104.333V27.3106H105.387L108.429 24.6863H110.979L106.834 27.9974L111.151 31.7499H108.649L105.387 28.7332H104.333V31.7499H102.665Z" fill="black"/>
<path fill-rule="evenodd" clip-rule="evenodd" d="M117.013 24.6863C115.062 24.6863 113.481 26.2675 113.481 28.2181C113.481 30.1687 115.062 31.7499 117.013 31.7499H118.19C120.141 31.7499 121.722 30.1687 121.722 28.2181C121.722 26.2675 120.141 24.6863 118.19 24.6863H117.013ZM117.332 26.0108C116.126 26.0108 115.149 26.9881 115.149 28.1936C115.149 29.3992 116.126 30.3765 117.332 30.3765H117.871C119.077 30.3765 120.054 29.3992 120.054 28.1936C120.054 26.9881 119.077 26.0108 117.871 26.0108H117.332Z" fill="black"/>
<path d="M124.518 24.7108V31.75H126.186V26.0843H126.382L128.835 31.75H131.238L133.667 26.0843H133.887V31.75H135.555V24.7108H132.391L130.061 30.3274H129.988L127.658 24.7108H124.518Z" fill="black"/>
<path d="M138.351 25.9127H140.019V31.75H138.351V25.9127Z" fill="black"/>
<path d="M144.385 25.9127H146.052V31.75H144.385V25.9127Z" fill="black"/>
<rect x="138.351" y="24.6863" width="7.70135" height="1.42254" fill="black"/>
<path fill-rule="evenodd" clip-rule="evenodd" d="M148.162 31.7499L151.914 24.6863H154.465L158.193 31.7499H156.157L155.25 29.984H151.105L150.222 31.7499H148.162ZM153.19 25.9371L151.792 28.6105H154.588L153.19 25.9371Z" fill="black"/>
<path d="M160.278 24.6863H161.946V31.7499H160.278V24.6863Z" fill="black"/>
<path d="M166.311 24.6863H167.979V31.75H166.311V24.6863Z" fill="black"/>
<rect x="160.278" y="27.3843" width="7.70135" height="1.42254" fill="black"/>
<path d="M170.775 31.7499V24.6863H172.443V30.3274H172.688L176.98 24.6863H179.801V31.7499H178.133V26.1088H177.888L173.645 31.7499H170.775Z" fill="black"/>
<path fill-rule="evenodd" clip-rule="evenodd" d="M190.642 31.7499V24.6863H185.099C184.363 24.6863 182.818 24.9806 182.818 26.9182C182.818 28.0955 183.235 28.9539 184.363 29.2728L182.303 31.7499H184.486L186.178 29.4935H188.999V31.7499H190.642ZM185.532 26.0108C184.954 26.0108 184.486 26.4793 184.486 27.0572C184.486 27.6713 184.983 28.1691 185.597 28.1691H188.998V26.0108H185.532Z" fill="black"/>
</svg>
