<?xml version="1.0" encoding="utf-8"?><svg viewBox="0 0 40 40" xmlns="http://www.w3.org/2000/svg" xmlns:xlink="http://www.w3.org/1999/xlink"><style>:root>svg{display:none}:root>svg:target{display:block}</style><svg fill="none" viewBox="0 0 16 14" id="ic_arrow_right" xmlns="http://www.w3.org/2000/svg"><path d="M1 6.688h13m0 0L8.312 1M14 6.688l-5.688 5.687" stroke="currentColor" stroke-width="2" stroke-linecap="round"/></svg><svg fill="none" viewBox="0 0 12 12" id="ic_close" xmlns="http://www.w3.org/2000/svg"><path d="M6.786 6.001l4.439-4.414a.534.534 0 0 0 0-.762.547.547 0 0 0-.77 0l-4.434 4.41L1.545.76a.543.543 0 0 0-.77 0 .547.547 0 0 0 0 .771l4.473 4.473-4.489 4.464a.535.535 0 0 0 0 .762c.212.21.557.21.77 0l4.484-4.46 4.459 4.458a.543.543 0 0 0 .769 0 .547.547 0 0 0 0-.771L6.786 6z" fill="currentColor"/></svg><svg fill="none" viewBox="0 0 20 20" id="ic_email" xmlns="http://www.w3.org/2000/svg"><path d="M20 10a.781.781 0 1 1-1.563 0c0-4.652-3.785-8.438-8.437-8.438-4.652 0-8.438 3.786-8.438 8.438 0 4.652 3.786 8.438 8.438 8.438 1.361 0 2.66-.314 3.86-.933a.781.781 0 1 1 .717 1.388A10.029 10.029 0 0 1 10 20a9.935 9.935 0 0 1-7.071-2.929A9.935 9.935 0 0 1 0 10a9.935 9.935 0 0 1 2.929-7.071A9.935 9.935 0 0 1 10 0a9.935 9.935 0 0 1 7.071 2.929A9.935 9.935 0 0 1 20 10zm-.943 2.843c.311.3.32.794.022 1.105a3.273 3.273 0 0 1-2.38 1.013 3.304 3.304 0 0 1-2.916-1.756A4.952 4.952 0 0 1 10 14.961 4.967 4.967 0 0 1 5.04 10 4.967 4.967 0 0 1 10 5.04 4.967 4.967 0 0 1 14.96 10v1.66a1.74 1.74 0 0 0 2.992 1.205.781.781 0 0 1 1.105-.022zM13.398 10A3.402 3.402 0 0 0 10 6.602 3.402 3.402 0 0 0 6.602 10 3.402 3.402 0 0 0 10 13.398 3.402 3.402 0 0 0 13.398 10z" fill="currentColor"/></svg><svg fill="none" viewBox="0 0 20 20" id="ic_file" xmlns="http://www.w3.org/2000/svg"><path d="M18.67 3.37a4.515 4.515 0 0 0-3.213-1.33 4.516 4.516 0 0 0-3.214 1.33l-7.165 7.166a2.73 2.73 0 0 0 0 3.856 2.73 2.73 0 0 0 3.857 0l4.718-4.718a.909.909 0 1 0-1.286-1.285L7.65 13.107a.91.91 0 0 1-1.286-1.286l7.165-7.165a2.71 2.71 0 0 1 1.929-.799 2.71 2.71 0 0 1 1.928.8 2.73 2.73 0 0 1 0 3.856l-7.807 7.808a4.55 4.55 0 0 1-6.429 0 4.515 4.515 0 0 1-1.33-3.214c0-1.214.472-2.356 1.33-3.214l7.808-7.808A.91.91 0 0 0 9.672.799L1.864 8.607A6.322 6.322 0 0 0 0 13.107c0 1.7.662 3.297 1.864 4.5a6.342 6.342 0 0 0 4.5 1.86c1.629 0 3.259-.62 4.5-1.86l7.807-7.808a4.55 4.55 0 0 0 0-6.429z" fill="currentColor"/></svg><svg fill="none" viewBox="0 0 17 17" id="ic_instagram" xmlns="http://www.w3.org/2000/svg"><path d="M11.14 1.197H5.718a4.52 4.52 0 0 0-4.52 4.52v5.424a4.52 4.52 0 0 0 4.52 4.52h5.424a4.52 4.52 0 0 0 4.52-4.52V5.717a4.52 4.52 0 0 0-4.52-4.52zm3.165 9.944a3.168 3.168 0 0 1-3.164 3.164H5.717a3.168 3.168 0 0 1-3.165-3.164V5.717a3.168 3.168 0 0 1 3.165-3.164h5.424a3.168 3.168 0 0 1 3.164 3.164v5.424z" fill="currentColor"/><path d="M8.429 4.813a3.616 3.616 0 1 0 0 7.232 3.616 3.616 0 0 0 0-7.232zm0 5.876a2.263 2.263 0 0 1-2.26-2.26 2.263 2.263 0 0 1 2.26-2.26 2.263 2.263 0 0 1 2.26 2.26 2.263 2.263 0 0 1-2.26 2.26zM12.316 5.023a.482.482 0 1 0 0-.963.482.482 0 0 0 0 .963z" fill="currentColor"/></svg><svg fill="none" viewBox="0 0 18 20" id="ic_location" xmlns="http://www.w3.org/2000/svg"><path d="M17.571 7.821L9.238.182a.695.695 0 0 0-.953.014L.415 7.835a.695.695 0 0 0-.211.498v10.972c0 .384.31.695.694.695h5.787c.384 0 .695-.31.695-.695v-5.092h3.24v5.092c0 .384.311.695.695.695h5.787c.383 0 .694-.31.694-.695V8.333a.695.695 0 0 0-.225-.512zm-1.164 10.79H12.01v-5.093a.694.694 0 0 0-.694-.694h-4.63a.694.694 0 0 0-.694.694v5.093H1.593V8.627l7.19-6.978 7.624 6.99v9.972z" fill="currentColor"/></svg><svg fill="none" viewBox="0 0 20 20" id="ic_message" xmlns="http://www.w3.org/2000/svg"><path d="M19.8 8.026a9.932 9.932 0 0 0-4.266-6.353A9.968 9.968 0 0 0 8.34.14l-.05.008C2.857 1.091-.794 6.278.15 11.709c.075.434.181.869.312 1.285a7.483 7.483 0 0 1-.382 5.399.832.832 0 0 0 .974 1.158l3.734-1.02a9.91 9.91 0 0 0 7.184 1.269 9.932 9.932 0 0 0 6.353-4.266A9.936 9.936 0 0 0 19.8 8.026zm-2.863 6.585a8.277 8.277 0 0 1-5.294 3.556 8.291 8.291 0 0 1-6.257-1.23.836.836 0 0 0-.68-.11l-2.544.694a9.165 9.165 0 0 0-.109-5.024 8.23 8.23 0 0 1-.261-1.073c-.784-4.514 2.24-8.825 6.744-9.628l.045-.007a8.304 8.304 0 0 1 6.031 1.271 8.276 8.276 0 0 1 3.555 5.294 8.277 8.277 0 0 1-1.23 6.257z" fill="currentColor"/><path d="M13.33 7.5H6.666a.832.832 0 1 0 0 1.666h6.666a.833.833 0 1 0 0-1.666zM13.33 10.832H6.666a.832.832 0 1 0 0 1.666h6.666a.833.833 0 1 0 0-1.666z" fill="currentColor"/></svg><svg fill="none" viewBox="0 0 11 3" id="ic_minus" xmlns="http://www.w3.org/2000/svg"><path d="M9.964.607a.893.893 0 1 1 0 1.786H1.035a.893.893 0 1 1 0-1.786h8.929z" fill="currentColor"/></svg><svg fill="none" viewBox="0 0 20 18" id="ic_mob_menu" xmlns="http://www.w3.org/2000/svg"><path d="M19 16H1a1 1 0 0 0 0 2h18a1 1 0 0 0 0-2zM1 2h18a1 1 0 0 0 0-2H1a1 1 0 0 0 0 2zm18 6H1a1 1 0 0 0 0 2h18a1 1 0 0 0 0-2z" fill="currentColor"/></svg><svg fill="none" viewBox="0 0 20 20" id="ic_phone" xmlns="http://www.w3.org/2000/svg"><g clip-path="url(#jclip0)"><path d="M19.288 14.07c-.267-.286-.545-.559-.817-.821-.136-.132-.273-.268-.409-.404l-1.187-1.188c-.506-.506-1.1-.773-1.708-.773-.613 0-1.202.267-1.708.773-.122.122-.248.244-.37.365-.282.278-.574.565-.857.867-.5-.244-1.012-.58-1.605-1.047a16.794 16.794 0 0 1-2.025-1.937.873.873 0 0 0-1.236-.082.873.873 0 0 0-.082 1.236c.652.75 1.386 1.455 2.243 2.15.005 0 .005.005.01.005.86.682 1.586 1.13 2.36 1.446.02.01.039.014.058.02.185.063.74.247 1.285-.293l.034-.034c.33-.374.681-.715 1.05-1.08.127-.122.254-.248.38-.375.117-.117.297-.263.473-.263.175 0 .35.142.472.263l1.187 1.188c.141.14.287.282.423.418.273.263.526.516.77.774.004.01.014.014.018.02.186.184.385.476-.01.895l-1.483 1.484a1.7 1.7 0 0 1-1.11.52c-.754.064-1.557-.082-2.603-.472-1.742-.642-3.368-1.62-5.124-3.08A19.083 19.083 0 0 1 2.748 8.31c-.418-.88-.91-2.048-.992-3.29-.044-.69.14-1.187.588-1.605.326-.272.614-.57.886-.852.175-.184.34-.355.516-.515l.005-.005c.345-.331.632-.336.954-.015l2.399 2.4.014.014c.102.097.224.248.229.413 0 .176-.132.346-.239.458L5.62 6.8a.881.881 0 0 0 0 1.24c.341.341.896.341 1.241 0l1.49-1.488c.5-.502.758-1.09.754-1.713-.005-.608-.268-1.183-.76-1.655L5.95.791C4.948-.21 3.585-.216 2.55.777c-.205.19-.39.384-.574.574-.258.267-.502.52-.764.74-.01.01-.02.019-.034.029C.325 2.893-.064 3.905.009 5.132.11 6.669.68 8.042 1.167 9.064v.005a20.862 20.862 0 0 0 5.42 6.92c1.913 1.586 3.704 2.661 5.636 3.376.71.263 1.747.594 2.895.594.151 0 .307-.005.462-.02h.005a3.45 3.45 0 0 0 2.2-1.026l1.489-1.49.014-.014c.96-.997.954-2.37 0-3.338z" fill="currentColor"/></g><defs><clipPath id="jclip0"><path fill="#fff" d="M0 0h20v20H0z"/></clipPath></defs></svg><svg fill="none" viewBox="0 0 11 11" id="ic_plus" xmlns="http://www.w3.org/2000/svg"><path d="M9.964 4.607H6.393V1.036a.893.893 0 1 0-1.786 0v3.571H1.035a.893.893 0 1 0 0 1.786h3.572v3.571a.893.893 0 1 0 1.786 0V6.393h3.571a.893.893 0 1 0 0-1.786z" fill="currentColor"/></svg><svg fill="none" viewBox="0 0 17 14" id="ic_telegram" xmlns="http://www.w3.org/2000/svg"><path d="M7.004 8.962a.308.308 0 0 0-.102.208l-.234 3.3c-.007.09.065.167.153.153.253-.04.39-.176.548-.333l1.712-1.636 3.547 2.598c.65.362 1.11.171 1.285-.599l2.328-10.91v-.001c.207-.962-.347-1.338-.98-1.102L1.572 5.88c-.934.363-.92.883-.158 1.12l3.364 1.046c.085.026.179.014.255-.034l8.008-5.01c.382-.253.73-.113.444.14l-6.482 5.82z" fill="currentColor"/></svg><svg fill="none" viewBox="0 0 20 20" id="ic_telegram2" xmlns="http://www.w3.org/2000/svg"><path d="M19.495.505a1.711 1.711 0 0 0-1.746-.42L1.189 5.46C.54 5.67.09 6.223.011 6.9a1.702 1.702 0 0 0 .825 1.67.783.783 0 0 0 .136.064l4.959 1.793.005 5.347c0 .703.424 1.32 1.08 1.571a1.675 1.675 0 0 0 1.856-.446l1.716-1.919 2.88 4.204c.35.573.996.88 1.653.803a1.7 1.7 0 0 0 1.465-1.263l.526-2.599a.781.781 0 0 0-1.531-.31l-.514 2.538a.144.144 0 0 1-.121.082.146.146 0 0 1-.152-.076.72.72 0 0 0-.026-.04l-3.19-4.658 4.579-8.487a.781.781 0 0 0-1.08-1.047L6.629 9.019 1.602 7.202a.146.146 0 0 1-.038-.124.146.146 0 0 1 .107-.132l16.56-5.375a.146.146 0 0 1 .16.038c.044.046.057.1.037.16a.786.786 0 0 0-.022.087l-2.057 10.161a.781.781 0 1 0 1.532.31L19.93 2.204a1.712 1.712 0 0 0-.435-1.7zM13.47 6.864l-3.467 6.426-2.294 2.567c-.017.02-.056.06-.133.03-.078-.03-.078-.088-.078-.113l-.005-5.45 5.977-3.46z" fill="currentColor"/></svg><svg fill="none" viewBox="0 0 17 14" id="ic_twitter" xmlns="http://www.w3.org/2000/svg"><path d="M16.143 2.056a6.595 6.595 0 0 1-1.823.5 3.145 3.145 0 0 0 1.392-1.75 6.32 6.32 0 0 1-2.006.766 3.162 3.162 0 0 0-5.471 2.163c0 .251.021.492.073.722a8.953 8.953 0 0 1-6.52-3.309 3.167 3.167 0 0 0 .972 4.227 3.124 3.124 0 0 1-1.429-.389v.035a3.178 3.178 0 0 0 2.535 3.108c-.258.07-.538.104-.83.104-.202 0-.407-.012-.599-.054a3.193 3.193 0 0 0 2.956 2.203 6.356 6.356 0 0 1-3.922 1.35c-.26 0-.508-.012-.757-.044a8.905 8.905 0 0 0 4.853 1.42c5.82 0 9.002-4.822 9.002-9.001 0-.14-.005-.275-.011-.41a6.311 6.311 0 0 0 1.585-1.641z" fill="currentColor"/></svg><svg fill="none" viewBox="0 0 23 26" id="ic_video_play" xmlns="http://www.w3.org/2000/svg"><path d="M20.673 10.115L5.907 1.013A3.373 3.373 0 0 0 2.452.94 3.373 3.373 0 0 0 .703 3.92v18.121c0 1.897 1.528 3.449 3.407 3.459h.015c.587 0 1.199-.184 1.77-.533a.975.975 0 1 0-1.015-1.664c-.267.163-.528.247-.76.247a1.515 1.515 0 0 1-1.467-1.509V3.921c0-.538.28-1.016.75-1.279a1.446 1.446 0 0 1 1.481.031l14.766 9.102c.444.274.698.73.697 1.25a1.437 1.437 0 0 1-.703 1.248L8.968 20.81a.975.975 0 0 0 1.018 1.663l10.674-6.536a3.39 3.39 0 0 0 1.637-2.908 3.39 3.39 0 0 0-1.624-2.914z" fill="currentColor"/></svg><svg fill="none" viewBox="0 0 20 20" id="ic_wallet" xmlns="http://www.w3.org/2000/svg"><path d="M15.82 10.04a2.346 2.346 0 0 0-2.344 2.343 2.346 2.346 0 0 0 2.344 2.344h3.32l.04-.002.039.002c.431 0 .781-.35.781-.781V7.813c0-1.04-.511-1.963-1.295-2.531L16.047.922a.78.78 0 0 0-1.079-.258l-1.96 1.216-.884-1.496a.781.781 0 0 0-1.078-.27L3.52 4.688H2.344a.782.782 0 0 1-.781-.762.782.782 0 0 1 .78-.762H3.79a.781.781 0 1 0 0-1.562H2.344c-1.106 0-2.035.77-2.28 1.8a.778.778 0 0 0-.064.31v13.163A3.128 3.128 0 0 0 3.125 20h13.75a3.121 3.121 0 0 0 2.965-2.135.781.781 0 1 0-1.482-.495 1.56 1.56 0 0 1-1.483 1.068H3.125c-.862 0-1.563-.701-1.563-1.563V6.116c.245.087.508.134.782.134h14.531c.861 0 1.563.701 1.563 1.563v2.226H15.82zm2.617 3.124H15.82a.782.782 0 0 1 0-1.562h2.617v1.562zM6.528 4.688l4.654-2.828.831 1.408a.791.791 0 0 0 .113.19l.726 1.23H6.528zm8.14 0l-.865-1.463 1.32-.818 1.39 2.28h-1.846z" fill="currentColor"/></svg><svg fill="none" viewBox="0 0 20 20" id="ic_whatsapp" xmlns="http://www.w3.org/2000/svg"><path d="M17.028 2.904A9.912 9.912 0 0 0 9.99 0 9.963 9.963 0 0 0 2.94 2.902 9.811 9.811 0 0 0 0 9.907v.005c0 1.598.42 3.21 1.217 4.681L.027 20l5.47-1.244a10.012 10.012 0 0 0 4.49 1.067h.003a9.964 9.964 0 0 0 7.049-2.902c1.896-1.877 2.94-4.365 2.942-7.006 0-2.623-1.048-5.113-2.953-7.01zM9.99 18.262h-.004c-1.4 0-2.786-.352-4.01-1.017l-.259-.14-3.636.827.79-3.59-.153-.263c-.757-1.305-1.157-2.747-1.157-4.168.003-4.602 3.784-8.35 8.429-8.35 2.244 0 4.352.87 5.937 2.45 1.608 1.602 2.493 3.699 2.493 5.904-.002 4.602-3.784 8.347-8.43 8.347z" fill="currentColor"/><path d="M7.272 5.542h-.438a.84.84 0 0 0-.61.284c-.21.228-.8.78-.8 1.9 0 1.12.82 2.203.934 2.356.114.151 1.58 2.524 3.903 3.437 1.93.76 2.323.608 2.742.57.42-.038 1.352-.55 1.543-1.082.19-.532.19-.988.133-1.083-.057-.095-.21-.152-.438-.266-.229-.114-1.349-.674-1.558-.75-.21-.076-.362-.114-.514.114-.153.228-.601.754-.735.906-.133.152-.266.171-.495.057-.229-.114-.957-.359-1.83-1.134-.68-.604-1.15-1.374-1.284-1.602-.134-.228-.014-.351.1-.465.103-.102.242-.241.356-.374.114-.133.146-.228.223-.38.076-.152.038-.285-.02-.399-.057-.114-.495-1.24-.698-1.69-.171-.38-.352-.393-.514-.4z" fill="currentColor"/></svg><svg fill="none" viewBox="0 0 15 11" id="ic_youtube" xmlns="http://www.w3.org/2000/svg"><path d="M14.286 4.09c0-.3-.05-.651-.05-1.051-.05-.4-.1-.801-.15-1.152-.1-.4-.25-.7-.551-.95-.25-.25-.6-.401-.951-.451-1.151-.15-2.853-.2-5.155-.2-2.303 0-4.055.05-5.156.2-.35.05-.7.2-.95.45-.251.25-.451.55-.551.951-.1.35-.15.701-.15 1.152-.05.4-.05.75-.05 1.05v2.303c0 .3.05.65.05 1.051.05.4.1.8.15 1.151.1.4.25.701.55.951.25.25.6.4.951.45 1.151.15 2.853.201 5.156.201 2.302 0 4.054-.05 5.155-.2.35-.05.7-.2.95-.45.251-.251.451-.551.551-.952.1-.35.15-.7.15-1.15.05-.401.05-.752.05-1.052V5.241 4.09zM10.08 5.64L6.127 8.094c-.05.05-.15.1-.25.1s-.15 0-.25-.05a.526.526 0 0 1-.25-.45V2.737c0-.2.1-.35.25-.45.15-.1.35-.1.5 0l3.954 2.452c.15.1.25.25.25.4 0 .15-.1.401-.25.501z" fill="currentColor"/></svg><svg fill="none" viewBox="0 0 40 40" id="ic_zoom" xmlns="http://www.w3.org/2000/svg"><path d="M34.15 34.15c7.8-7.802 7.8-20.498 0-28.3-7.802-7.8-20.498-7.8-28.3 0-7.8 7.802-7.8 20.498 0 28.3 7.802 7.8 20.498 7.8 28.3 0zM7.261 7.261c7.026-7.025 18.45-7.025 25.476 0 7.025 7.026 7.025 18.45 0 25.476-7.026 7.025-18.45 7.025-25.476 0-7.025-7.026-7.017-18.45 0-25.476z" fill="currentColor"/><path d="M20 27.49a1.006 1.006 0 0 0 1.004-1.004v-5.49h5.491a1.006 1.006 0 0 0 1.004-1.004.99.99 0 0 0-.995-.996h-5.492v-5.491a.989.989 0 0 0-.996-.996.989.989 0 0 0-.995.996v5.491h-5.492a.989.989 0 0 0-.995.996.99.99 0 0 0 .995.995h5.492v5.492A.97.97 0 0 0 20 27.49z" fill="currentColor"/></svg></svg>